<svg viewBox="0 0 24 24" xmlns="http://www.w3.org/2000/svg"><g fill-rule="evenodd"><path d="M2.75 12c0-5.11 4.14-9.25 9.25-9.25 5.1 0 9.25 4.14 9.25 9.25 0 1.68-.46 3.26-1.24 4.62 -.21.35-.09.81.27 1.02 .35.2.81.08 1.02-.28 .91-1.59 1.43-3.42 1.43-5.38 0-5.94-4.82-10.75-10.75-10.75 -5.94 0-10.75 4.81-10.75 10.75 0 5.93 4.81 10.75 10.75 10.75 1.68 0 3.27-.39 4.69-1.08 .37-.19.52-.63.34-1.01 -.19-.38-.63-.53-1.01-.35 -1.22.59-2.59.92-4.04.92 -5.11 0-9.25-4.15-9.25-9.25Z"/><path d="M12 1.25c-.42 0-.75.33-.75.75v11.5c0 .41.33.75.75.75 .41 0 .75-.34.75-.75V2c0-.42-.34-.75-.75-.75Z"/><path d="M7.96 9.46c-.3.29-.3.76 0 1.06l3.5 3.5c.29.29.76.29 1.06 0l3.5-3.5c.29-.3.29-.77 0-1.07 -.3-.3-.77-.3-1.07 0l-2.97 2.96 -2.97-2.97c-.3-.3-.77-.3-1.07 0Z"/></g></svg>